<svg xmlns="http://www.w3.org/2000/svg" width="496.886" height="90.435" viewBox="0 0 496.886 90.435"><defs><style>.a{fill:#fff;}.b{fill:#d93b3b;}.c{fill:none;stroke:#fff;stroke-linecap:round;stroke-width:2px;}</style></defs><g transform="translate(-162.864 -413.466)"><path class="a" d="M30.8-22.54v-3.08H9.66v-21h25.2V-49.7H6.3V0H9.66V-22.54ZM46.97-49.7H43.61V0H70.63V-3.08H46.97ZM119.7-24.85c0-15.05-9.73-25.69-23.52-25.69-13.72,0-23.45,10.64-23.45,25.69S82.39.84,96.18.84,119.7-9.8,119.7-24.85Zm-3.43,0c0,13.23-8.26,22.47-20.09,22.47-11.76,0-20.02-9.24-20.02-22.47s8.26-22.47,20.02-22.47C108.01-47.32,116.27-38.08,116.27-24.85ZM137.2,0h3.22l14.42-44.8L169.33,0h3.08l14.84-49.7h-3.43l-11.2,37.66c-.49,1.61-1.12,3.99-1.82,7.42-.7-2.73-1.33-5.11-2.1-7.42L156.52-49.7h-3.36L141.05-12.04c-.7,2.24-1.33,4.2-2.17,7.49-.63-2.87-1.19-5.25-1.82-7.49L126-49.7h-3.5Z" transform="translate(472.5 498.534)"/><path class="b" d="M61.67,90.435a47.747,47.747,0,0,1-19.707-4.5,74.383,74.383,0,0,1-16.9-10.883A112.041,112.041,0,0,1,11.722,61.689a127.855,127.855,0,0,1-9-11.953C-.232,45.279,0,42.231.005,42.2c0-2.227,1.6-4.388,4.755-6.422a47.647,47.647,0,0,1,12.965-5.244C29.152,27.417,44.345,25.7,60.505,25.7a188.81,188.81,0,0,1,34.608,2.961c5.949-2.576,10.973-12.649,18.045-22.231,7.51-10.173,17.978-7.773,6.007,3.659C109.154,19.649,107.408,28.9,107.1,31.676a40.314,40.314,0,0,1,9.146,4.1c3.155,2.034,4.755,4.195,4.755,6.422a5.529,5.529,0,0,1-1.23,3.327c-17.886,29.8-37.434,44.906-58.1,44.907ZM21.407,32.655a47.492,47.492,0,0,0-12,4.291c-2.921,1.664-4.4,3.432-4.4,5.254s1.48,3.591,4.4,5.255a47.478,47.478,0,0,0,12,4.291C31.984,54.3,46.047,55.7,61.006,55.7s29.021-1.4,39.6-3.954a47.492,47.492,0,0,0,12-4.291c2.921-1.664,4.4-3.433,4.4-5.255s-1.48-3.59-4.4-5.254a47.492,47.492,0,0,0-12-4.291c-10.578-2.55-24.64-3.955-39.6-3.955S31.984,30.105,21.407,32.655Z" transform="translate(164.692 413.466)"/><line class="c" x2="14" transform="translate(200.697 480.034)"/><line class="c" x2="14" transform="translate(235.697 480.034)"/><path class="c" d="M73,286.916s-3.918-4.463-11.473,0-36.11,8.571-46.933-.876,8.815-6.93,5.509-3.622" transform="translate(152.56 201.633)"/><path class="c" d="M11.3,286.916s3.918-4.463,11.473,0,36.11,8.571,46.933-.876-8.815-6.93-5.509-3.622" transform="translate(214.254 201.697)"/><path class="c" d="M219.365,494.807s5.771,6.066,12.383,0" transform="translate(0 -2.696)"/><path class="b" d="M16.31,0h8.82L36.26-37.24,47.18,0h8.68L71.4-51.17H62.3L54.04-24.08c-.77,2.59-1.47,5.32-2.45,10.08a104.319,104.319,0,0,0-2.45-10.15L41.23-51.17H31.36L23.31-24.15A79.076,79.076,0,0,0,20.79-14a95.606,95.606,0,0,0-2.31-10.15L10.36-51.17H1.05ZM122.92-25.62c0-15.61-10.22-26.46-24.85-26.46S73.29-41.16,73.29-25.62C73.29-10.01,83.37.84,98,.84,112.7.84,122.92-10.08,122.92-25.62Zm-9.45,0c0,10.78-6.02,17.85-15.4,17.85s-15.4-6.93-15.4-17.85,6.02-17.85,15.4-17.85S113.47-36.54,113.47-25.62Zm26.74-25.55h-8.96V0h8.96V-10.92l8.47-10.85L161.35,0h10.36L154.56-29.33,171.5-51.17H160.93L140.21-24.29Z" transform="translate(300 499)"/></g></svg>