<?xml version="1.0" standalone="no"?>
<!DOCTYPE svg PUBLIC "-//W3C//DTD SVG 20010904//EN"
 "http://www.w3.org/TR/2001/REC-SVG-20010904/DTD/svg10.dtd">
<svg version="1.0" xmlns="http://www.w3.org/2000/svg"
 width="728.000000pt" height="728.000000pt" viewBox="0 0 728.000000 728.000000"
 preserveAspectRatio="xMidYMid meet">
<metadata>
Created by potrace 1.14, written by Peter Selinger 2001-2017
</metadata>
<g transform="translate(0.000000,728.000000) scale(0.100000,-0.100000)"
fill="#000000" stroke="none">
<path d="M0 3640 l0 -3640 3640 0 3640 0 0 3640 0 3640 -3640 0 -3640 0 0
-3640z m3194 -826 c9 -8 16 -22 16 -29 0 -7 -7 -21 -16 -29 -13 -14 -55 -16
-309 -16 -254 0 -296 2 -309 16 -9 8 -16 22 -16 29 0 7 7 21 16 29 13 14 55
16 309 16 254 0 296 -2 309 -16z m1400 0 c9 -8 16 -22 16 -29 0 -7 -7 -21 -16
-29 -13 -14 -55 -16 -309 -16 -254 0 -296 2 -309 16 -9 8 -16 22 -16 29 0 7 7
21 16 29 13 14 55 16 309 16 254 0 296 -2 309 -16z m-3175 -51 c65 -20 121
-69 121 -107 0 -15 -11 -38 -25 -52 -24 -24 -28 -25 -48 -11 -14 9 -22 25 -22
43 0 41 -40 58 -150 62 -155 6 -164 -33 -38 -156 59 -57 96 -83 176 -122 221
-108 560 -150 917 -116 354 35 564 84 759 176 205 97 318 110 438 50 50 -25
58 -27 77 -15 66 43 195 59 287 35 24 -6 100 -38 170 -70 191 -90 420 -145
739 -176 400 -39 785 14 992 137 84 50 180 137 203 186 17 36 17 37 -6 56 -21
17 -36 19 -109 15 -104 -6 -165 -30 -149 -60 8 -15 6 -24 -7 -39 -23 -26 -39
-24 -63 7 -66 84 36 163 219 171 85 4 100 2 140 -19 36 -18 48 -32 59 -64 14
-40 13 -44 -12 -97 -33 -66 -138 -169 -224 -220 -112 -65 -279 -120 -458 -149
-120 -20 -596 -16 -750 6 -257 36 -455 91 -606 166 -125 63 -197 84 -269 77
-58 -5 -126 -33 -149 -61 -19 -23 -44 -20 -71 9 -37 39 -111 59 -198 52 -65
-5 -89 -13 -176 -58 -222 -113 -491 -176 -861 -200 -549 -35 -941 65 -1153
295 -87 94 -102 179 -41 230 26 22 44 28 119 40 32 5 117 -6 169 -21z m1981
-447 c71 -64 197 -93 281 -64 28 9 80 40 154 93 17 12 55 -20 55 -46 0 -22
-88 -90 -150 -118 -122 -53 -288 -23 -395 70 -38 34 -44 59 -19 83 22 23 32
20 74 -18z"/>
</g>
</svg>
